[Header]
FileType HTR
DataType HTRS
FileVersion 1
NumSegments 64
NumFrames 3
DataFrameRate 24
EulerRotationOrder ZYX
CalibrationUnits mm
RotationUnits Degrees
GlobalAxisofGravity Y
BoneLengthAxis Y
ScaleFactor 1.0
[SegmentNames&Hierarchy]
Hips	GLOBAL
Spine	Hips
Spine1	Spine
Spine2	Spine1
Neck	Spine2
Head	Neck
LeftEye	Head
RightEye	Head
LeftShoulder	Spine2
LeftArm	LeftShoulder
LeftForeArm	LeftArm
LeftHand	LeftForeArm
LeftHandThumb1	LeftHand
LeftHandThumb2	LeftHandThumb1
LeftHandThumb3	LeftHandThumb2
LeftHandThumb4	LeftHandThumb3
LeftHandIndex1	LeftHand
LeftHandIndex2	LeftHandIndex1
LeftHandIndex3	LeftHandIndex2
LeftHandIndex4	LeftHandIndex3
LeftHandMiddle1	LeftHand
LeftHandMiddle2	LeftHandMiddle1
LeftHandMiddle3	LeftHandMiddle2
LeftHandMiddle4	LeftHandMiddle3
LeftHandRing1	LeftHand
LeftHandRing2	LeftHandRing1
LeftHandRing3	LeftHandRing2
LeftHandRing4	LeftHandRing3
LeftHandPinky1	LeftHand
LeftHandPinky2	LeftHandPinky1
LeftHandPinky3	LeftHandPinky2
LeftHandPinky4	LeftHandPinky3
RightShoulder	Spine2
RightArm	RightShoulder
RightForeArm	RightArm
RightHand	RightForeArm
RightHandPinky1	RightHand
RightHandPinky2	RightHandPinky1
RightHandPinky3	RightHandPinky2
RightHandPinky4	RightHandPinky3
RightHandRing1	RightHand
RightHandRing2	RightHandRing1
RightHandRing3	RightHandRing2
RightHandRing4	RightHandRing3
RightHandMiddle1	RightHand
RightHandMiddle2	RightHandMiddle1
RightHandMiddle3	RightHandMiddle2
RightHandMiddle4	RightHandMiddle3
RightHandIndex1	RightHand
RightHandIndex2	RightHandIndex1
RightHandIndex3	RightHandIndex2
RightHandIndex4	RightHandIndex3
RightHandThumb1	RightHand
RightHandThumb2	RightHandThumb1
RightHandThumb3	RightHandThumb2
RightHandThumb4	RightHandThumb3
LeftUpLeg	Hips
LeftLeg	LeftUpLeg
LeftFoot	LeftLeg
LeftToeBase	LeftFoot
RightUpLeg	Hips
RightLeg	RightUpLeg
RightFoot	RightLeg
RightToeBase	RightFoot
[BasePosition]
Hips	0	0	0	0	0	0	1
Spine	0	0	0	0	0	0	1
Spine1	0	0	0	0	0	0	1
Spine2	0	0	0	0	0	0	1
Neck	0	0	0	0	0	0	1
Head	0	0	0	0	0	0	1
LeftEye	0	0	0	0	0	0	1
RightEye	0	0	0	0	0	0	1
LeftShoulder	0	0	0	0	0	0	1
LeftArm	0	0	0	0	0	0	1
LeftForeArm	0	0	0	0	0	0	1
LeftHand	0	0	0	0	0	0	1
LeftHandThumb1	0	0	0	0	0	0	1
LeftHandThumb2	0	0	0	0	0	0	1
LeftHandThumb3	0	0	0	0	0	0	1
LeftHandThumb4	0	0	0	0	0	0	1
LeftHandIndex1	0	0	0	0	0	0	1
LeftHandIndex2	0	0	0	0	0	0	1
LeftHandIndex3	0	0	0	0	0	0	1
LeftHandIndex4	0	0	0	0	0	0	1
LeftHandMiddle1	0	0	0	0	0	0	1
LeftHandMiddle2	0	0	0	0	0	0	1
LeftHandMiddle3	0	0	0	0	0	0	1
LeftHandMiddle4	0	0	0	0	0	0	1
LeftHandRing1	0	0	0	0	0	0	1
LeftHandRing2	0	0	0	0	0	0	1
LeftHandRing3	0	0	0	0	0	0	1
LeftHandRing4	0	0	0	0	0	0	1
LeftHandPinky1	0	0	0	0	0	0	1
LeftHandPinky2	0	0	0	0	0	0	1
LeftHandPinky3	0	0	0	0	0	0	1
LeftHandPinky4	0	0	0	0	0	0	1
RightShoulder	0	0	0	0	0	0	1
RightArm	0	0	0	0	0	0	1
RightForeArm	0	0	0	0	0	0	1
RightHand	0	0	0	0	0	0	1
RightHandPinky1	0	0	0	0	0	0	1
RightHandPinky2	0	0	0	0	0	0	1
RightHandPinky3	0	0	0	0	0	0	1
RightHandPinky4	0	0	0	0	0	0	1
RightHandRing1	0	0	0	0	0	0	1
RightHandRing2	0	0	0	0	0	0	1
RightHandRing3	0	0	0	0	0	0	1
RightHandRing4	0	0	0	0	0	0	1
RightHandMiddle1	0	0	0	0	0	0	1
RightHandMiddle2	0	0	0	0	0	0	1
RightHandMiddle3	0	0	0	0	0	0	1
RightHandMiddle4	0	0	0	0	0	0	1
RightHandIndex1	0	0	0	0	0	0	1
RightHandIndex2	0	0	0	0	0	0	1
RightHandIndex3	0	0	0	0	0	0	1
RightHandIndex4	0	0	0	0	0	0	1
RightHandThumb1	0	0	0	0	0	0	1
RightHandThumb2	0	0	0	0	0	0	1
RightHandThumb3	0	0	0	0	0	0	1
RightHandThumb4	0	0	0	0	0	0	1
LeftUpLeg	0	0	0	0	0	0	1
LeftLeg	0	0	0	0	0	0	1
LeftFoot	0	0	0	0	0	0	1
LeftToeBase	0	0	0	0	0	0	1
RightUpLeg	0	0	0	0	0	0	1
RightLeg	0	0	0	0	0	0	1
RightFoot	0	0	0	0	0	0	1
RightToeBase	0	0	0	0	0	0	1
[Hips]
6	96.19728851	1021.990295	-21.94116974	-1.782240748	-7.090487957	-3.657163382	1.0
7	104.1372223	1020.113281	-26.51094246	-1.618736148	-10.72686672	-3.696591377	1.0
8	110.6611023	1018.142151	-31.04602432	-1.510259032	-14.52393627	-3.72028017	1.0
[Spine]
6	0	101.8159943	1.315000057	3.69089365	0.04673143476	3.387984276	1.0
7	0	101.8159943	1.315000057	3.479016542	-0.1228329167	3.400977373	1.0
8	0	101.8159943	1.315000057	3.253391266	-0.2630866468	3.373303413	1.0
[Spine1]
6	0	100.8349991	-10.00800037	1.49428761	-0.8408129811	0.2638866901	1.0
7	0	100.8349991	-10.00800037	1.320808649	-1.019229889	-0.2338844091	1.0
8	0	100.8349991	-10.00800037	1.133218288	-1.176542282	-0.7450397015	1.0
[Spine2]
6	0	91	-13.73399925	1.43438828	-0.7265734076	1.612279654	1.0
7	0	91	-13.73399925	1.246755719	-0.8604238629	1.581513524	1.0
8	0	91	-13.73399925	1.044560909	-0.9715383053	1.544633865	1.0
[Neck]
6	0	166.7169952	-25.16200066	7.618369102	-8.785104752	2.314618587	1.0
7	0	166.7169952	-25.16200066	7.75160265	-9.185274124	2.334394693	1.0
8	0	166.7169952	-25.16200066	7.818826199	-9.389119148	2.345050573	1.0
[Head]
6	0	96.17900085	16.84999847	-3.652098417	-20.18941116	6.569396973	1.0
7	0	96.17900085	16.84999847	-3.173432589	-21.90167809	7.327811241	1.0
8	0	96.17900085	16.84999847	-2.880222321	-23.17337418	8.060201645	1.0
[LeftEye]
6	30.6760006	64.09500122	92.83599854	0	0	0	1.0
7	30.6760006	64.09500122	92.83599854	0	0	0	1.0
8	30.6760006	64.09500122	92.83599854	0	0	0	1.0
[RightEye]
6	-30.6760006	64.09500122	92.83499908	0	0	0	1.0
7	-30.6760006	64.09500122	92.83499908	0	0	0	1.0
8	-30.6760006	64.09500122	92.83499908	0	0	0	1.0
[LeftShoulder]
6	45.70400238	109.4599991	-26.28000069	4.825580597	-16.64391708	-12.49289894	1.0
7	45.70400238	109.4599991	-26.28000069	4.782308578	-16.4140358	-12.58111	1.0
8	45.70400238	109.4599991	-26.28000069	4.732764244	-16.15660095	-12.67386055	1.0
[LeftArm]
6	105.923996	-5.24600029	-22.32099915	19.0076828	1.41877687	-66.04389191	1.0
7	105.923996	-5.24600029	-22.32099915	18.71652794	2.309859753	-65.06358337	1.0
8	105.923996	-5.24600029	-22.32099915	18.40729904	3.195950985	-64.11901855	1.0
[LeftForeArm]
6	278.414978	-0.0009999999311	0	-1.037107253e-07	-4.650688648	-0.0002051693446	1.0
7	278.414978	-0.0009999999311	0	1.785655172e-06	-5.816338062	-0.0002062521962	1.0
8	278.414978	-0.0009999999311	0	3.079006547e-06	-7.062667847	-0.0002062892599	1.0
[LeftHand]
6	283.2879944	0	0	-35.38950348	0.7578406334	-3.24707222	1.0
7	283.2879944	0	0	-34.33715057	1.965904593	-2.44207716	1.0
8	283.2879944	0	0	-33.07712173	3.058004856	-1.571202636	1.0
[LeftHandThumb1]
6	24.6609993	-15.75	26.8239994	-0.4889863729	2.201392412	4.818544865	1.0
7	24.6609993	-15.75	26.8239994	-0.4889863729	2.201392412	4.818544865	1.0
8	24.6609993	-15.75	26.8239994	-0.4889863729	2.201392412	4.818544865	1.0
[LeftHandThumb2]
6	32.29800034	-18.64699936	18.64699936	20.03642654	20.14015198	23.20234299	1.0
7	32.29800034	-18.64699936	18.64699936	19.8522377	19.70987892	23.08652687	1.0
8	32.29800034	-18.64699936	18.64699936	19.65015793	19.22577858	22.95783997	1.0
[LeftHandThumb3]
6	26.52600098	-15.31499958	15.31499958	-13.15539551	5.528407574	7.97279644	1.0
7	26.52600098	-15.31499958	15.31499958	-13.15777779	5.522538662	7.972550392	1.0
8	26.52600098	-15.31499958	15.31499958	-13.15969849	5.517814636	7.972355843	1.0
[LeftHandThumb4]
6	19.54599953	-11.28499985	11.28499985	0	0	0	1.0
7	19.54599953	-11.28499985	11.28499985	0	0	0	1.0
8	19.54599953	-11.28499985	11.28499985	0	0	0	1.0
[LeftHandIndex1]
6	91.09299469	-5.170999527	22.60099792	0.09845452756	-0.9732917547	-7.992138386	1.0
7	91.09299469	-5.170999527	22.60099792	0.08338534832	-0.9828712344	-8.082805634	1.0
8	91.09299469	-5.170999527	22.60099792	0.06945354491	-0.9901165366	-8.173760414	1.0
[LeftHandIndex2]
6	36.76399994	0	0	-0.2669845521	1.746083975	-17.38577843	1.0
7	36.76399994	0	0	-0.2661579847	1.743440509	-17.35863495	1.0
8	36.76399994	0	0	-0.2651923597	1.740350842	-17.32691193	1.0
[LeftHandIndex3]
6	28.83100128	0	0	-0.05756168813	0.8182808757	-8.047664642	1.0
7	28.83100128	0	0	-0.05717660114	0.8155405521	-8.020533562	1.0
8	28.83100128	0	0	-0.05672673136	0.8123374581	-7.988824368	1.0
[LeftHandIndex4]
6	23.92700005	0	0	0	0	0	1.0
7	23.92700005	0	0	0	0	0	1.0
8	23.92700005	0	0	0	0	0	1.0
[LeftHandMiddle1]
6	95.33399963	0	0	-0.8182063103	2.616056204	-16.06884193	1.0
7	95.33399963	0	0	-0.8185075521	2.616278172	-16.0732708	1.0
8	95.33399963	0	0	-0.8170871735	2.616124392	-16.05231285	1.0
[LeftHandMiddle2]
6	36.98199844	0	0	-0.2698039711	1.75505209	-17.47807884	1.0
7	36.98199844	0	0	-0.2699414194	1.75548625	-17.4825325	1.0
8	36.98199844	0	0	-0.2699145377	1.755398393	-17.48161125	1.0
[LeftHandMiddle3]
6	29.50900078	0	0	-0.3015193343	1.852724433	-18.48565292	1.0
7	29.50900078	0	0	-0.3016634583	1.853156686	-18.4901104	1.0
8	29.50900078	0	0	-0.3016344607	1.853069067	-18.48918152	1.0
[LeftHandMiddle4]
6	28.3390007	0	0	0	0	0	1.0
7	28.3390007	0	0	0	0	0	1.0
8	28.3390007	0	0	0	0	0	1.0
[LeftHandRing1]
6	91.04499817	-0.4390000105	-18.65100098	-1.212957025	3.33052516	-21.53814125	1.0
7	91.04499817	-0.4390000105	-18.65100098	-1.217147946	3.296714306	-21.59397125	1.0
8	91.04499817	-0.4390000105	-18.65100098	-1.221186519	3.262737513	-21.64780807	1.0
[LeftHandRing2]
6	31.54000092	0	0	-0.3853855729	2.086742163	-20.92515564	1.0
7	31.54000092	0	0	-0.3849989474	2.085731745	-20.91453934	1.0
8	31.54000092	0	0	-0.3842748702	2.083836079	-20.89462852	1.0
[LeftHandRing3]
6	29.37700081	0	0	-0.2821989655	1.793919206	-17.87828827	1.0
7	29.37700081	0	0	-0.2818691134	1.792895198	-17.86773491	1.0
8	29.37700081	0	0	-0.2812484801	1.790969849	-17.84790039	1.0
[LeftHandRing4]
6	26.47500038	0	0	0	0	0	1.0
7	26.47500038	0	0	0	0	0	1.0
8	26.47500038	0	0	0	0	0	1.0
[LeftHandPinky1]
6	80.77799988	-4.887000084	-38.06099701	-1.843443871	4.847159863	-27.65551186	1.0
7	80.77799988	-4.887000084	-38.06099701	-1.860100985	4.793590546	-27.73421669	1.0
8	80.77799988	-4.887000084	-38.06099701	-1.873624921	4.751344204	-27.80112267	1.0
[LeftHandPinky2]
6	36	0	0	-0.2726895809	1.764180779	-17.57199478	1.0
7	36	0	0	-0.2720725834	1.762228966	-17.55191612	1.0
8	36	0	0	-0.2714193165	1.760163188	-17.530653	1.0
[LeftHandPinky3]
6	21.14200211	0	0	-0.2453278005	1.675366163	-16.66028976	1.0
7	21.14200211	0	0	-0.2447030544	1.673277736	-16.63887215	1.0
8	21.14200211	0	0	-0.2440523654	1.671102285	-16.61655235	1.0
[LeftHandPinky4]
6	19.75699997	0	0	0	0	0	1.0
7	19.75699997	0	0	0	0	0	1.0
8	19.75699997	0	0	0	0	0	1.0
[RightShoulder]
6	-45.70000076	109.4620056	-26.28000069	5.131825924	14.34132671	15.4400692	1.0
7	-45.70000076	109.4620056	-26.28000069	5.084686279	14.20068836	15.26829052	1.0
8	-45.70000076	109.4620056	-26.28000069	5.043223381	14.07619095	15.11450195	1.0
[RightArm]
6	-105.9280014	-5.248000145	-22.32099915	-0.5837633014	-1.693429947	60.49818039	1.0
7	-105.9280014	-5.248000145	-22.32099915	-6.54929018	-4.779800415	61.49614716	1.0
8	-105.9280014	-5.248000145	-22.32099915	-12.47460175	-7.892004967	62.64004135	1.0
[RightForeArm]
6	-278.414978	0	0	1.373457394e-06	17.43211174	1.624464676e-05	1.0
7	-278.414978	0	0	-2.506235205e-06	20.33876038	3.414609409e-06	1.0
8	-278.414978	0	0	-5.71430337e-06	23.13716316	-1.160036936e-05	1.0
[RightHand]
6	-283.2879944	0	0.0009999999311	9.694743156	13.88308811	-1.248633623	1.0
7	-283.2879944	0	0.0009999999311	15.11054325	15.75855827	0.5607786775	1.0
8	-283.2879944	0	0.0009999999311	20.44873238	17.48098183	2.787069798	1.0
[RightHandPinky1]
6	-80.76699829	-4.885000229	-38.06000137	-1.524175048	-5.196185589	27.1886158	1.0
7	-80.76699829	-4.885000229	-38.06000137	-1.518116355	-5.249713898	27.14796638	1.0
8	-80.76699829	-4.885000229	-38.06000137	-1.510851979	-5.300418377	27.08712959	1.0
[RightHandPinky2]
6	-36	0	0.0009999999311	-0.2130701542	-1.389853835	17.45053482	1.0
7	-36	0	0.0009999999311	-0.2128334045	-1.38909936	17.44077682	1.0
8	-36	0	0.0009999999311	-0.212557897	-1.388221145	17.42941284	1.0
[RightHandPinky3]
6	-21.14200211	0	0	-0.1922429651	-1.321725607	16.55082512	1.0
7	-21.14200211	0	0	-0.1920270324	-1.321003199	16.541502	1.0
8	-21.14200211	0	0	-0.1917743981	-1.32015574	16.53058243	1.0
[RightHandPinky4]
6	-19.75699997	0	0	0	0	0	1.0
7	-19.75699997	0	0	0	0	0	1.0
8	-19.75699997	0	0	0	0	0	1.0
[RightHandRing1]
6	-91.03599548	-0.4390000105	-18.65100098	-1.12211132	-3.211946487	21.63101196	1.0
7	-91.03599548	-0.4390000105	-18.65100098	-1.121762514	-3.203675985	21.62601471	1.0
8	-91.03599548	-0.4390000105	-18.65100098	-1.118999839	-3.188774824	21.58507538	1.0
[RightHandRing2]
6	-31.54000092	0	0	-0.3088692725	-1.664421916	21.02439117	1.0
7	-31.54000092	0	0	-0.3084383905	-1.663294554	21.00948334	1.0
8	-31.54000092	0	0	-0.307952553	-1.662020802	20.99264526	1.0
[RightHandRing3]
6	-29.37700081	0	0	-0.2263849676	-1.431565046	17.97175026	1.0
7	-29.37700081	0	0	-0.2260109484	-1.430418611	17.9568615	1.0
8	-29.37700081	0	0	-0.2255892456	-1.429124594	17.94005775	1.0
[RightHandRing4]
6	-26.47500038	0	0	0	0	0	1.0
7	-26.47500038	0	0	0	0	0	1.0
8	-26.47500038	0	0	0	0	0	1.0
[RightHandMiddle1]
6	-95.32500458	0	0	-0.7936995029	-2.570692062	16.52707481	1.0
7	-95.32500458	0	0	-0.7934203148	-2.653764009	16.52122116	1.0
8	-95.32500458	0	0	-0.7915099859	-2.73412919	16.48877335	1.0
[RightHandMiddle2]
6	-36.98199844	0	0	-0.2162338346	-1.399884939	17.56084442	1.0
7	-36.98199844	0	0	-0.2162232697	-1.399847746	17.56036377	1.0
8	-36.98199844	0	0	-0.2162771076	-1.400017262	17.56254387	1.0
[RightHandMiddle3]
6	-29.50900078	0	0	-0.2415426075	-1.479463577	18.56876564	1.0
7	-29.50900078	0	0	-0.2415240258	-1.479415059	18.56811714	1.0
8	-29.50900078	0	0	-0.2415741831	-1.479573011	18.57015038	1.0
[RightHandMiddle4]
6	-28.3390007	0	0.0009999999311	0	0	0	1.0
7	-28.3390007	0	0.0009999999311	0	0	0	1.0
8	-28.3390007	0	0.0009999999311	0	0	0	1.0
[RightHandIndex1]
6	-91.08300018	-5.167999744	22.60099792	0.246430099	0.8471814394	8.296765327	1.0
7	-91.08300018	-5.167999744	22.60099792	0.2565535009	0.826310575	8.293073654	1.0
8	-91.08300018	-5.167999744	22.60099792	0.2654070556	0.8143383861	8.257471085	1.0
[RightHandIndex2]
6	-36.76399994	0	0	-0.2128394842	-1.389095068	17.4212513	1.0
7	-36.76399994	0	0	-0.212703526	-1.388665438	17.41566277	1.0
8	-36.76399994	0	0	-0.2125863582	-1.388302088	17.41087532	1.0
[RightHandIndex3]
6	-28.83100128	0	0	-0.0459288694	-0.6512070298	8.06712532	1.0
7	-28.83100128	0	0	-0.04586379975	-0.6507589221	8.061534882	1.0
8	-28.83100128	0	0	-0.04580610245	-0.6503745317	8.05674839	1.0
[RightHandIndex4]
6	-23.92700005	0	0	0	0	0	1.0
7	-23.92700005	0	0	0	0	0	1.0
8	-23.92700005	0	0	0	0	0	1.0
[RightHandThumb1]
6	-24.64799881	-15.72700024	26.82600021	-1.658462644	-0.289145112	-4.221315384	1.0
7	-24.64799881	-15.72700024	26.82600021	-1.658462644	-0.289145112	-4.221315384	1.0
8	-24.64799881	-15.72700024	26.82600021	-1.658462644	-0.289145112	-4.221315384	1.0
[RightHandThumb2]
6	-32.29800034	-18.64699936	18.64699936	23.52532578	-24.00049591	-24.79298973	1.0
7	-32.29800034	-18.64699936	18.64699936	23.40646744	-23.71620941	-24.63930893	1.0
8	-32.29800034	-18.64699936	18.64699936	23.27782249	-23.40837097	-24.47156525	1.0
[RightHandThumb3]
6	-26.52600098	-15.31399918	15.31399918	-13.5407629	-5.08581543	-12.1619215	1.0
7	-26.52600098	-15.31399918	15.31399918	-13.39156151	-4.980824947	-12.19091225	1.0
8	-26.52600098	-15.31399918	15.31399918	-13.26857948	-4.907473087	-12.19952774	1.0
[RightHandThumb4]
6	-19.54599953	-11.28499985	11.28499985	0	0	0	1.0
7	-19.54599953	-11.28499985	11.28499985	0	0	0	1.0
8	-19.54599953	-11.28499985	11.28499985	0	0	0	1.0
[LeftUpLeg]
6	82.07800293	-67.51699829	-15.99599934	-15.72820663	11.92837143	1.841992617	1.0
7	82.07800293	-67.51699829	-15.99599934	-16.21359444	12.4866972	1.539964318	1.0
8	82.07800293	-67.51699829	-15.99599934	-16.6254406	13.16897583	1.376164079	1.0
[LeftLeg]
6	0	-443.7049866	2.845999956	23.22807503	4.993019104	7.817893028	1.0
7	0	-443.7049866	2.845999956	24.23464775	4.932590961	8.013044357	1.0
8	0	-443.7049866	2.845999956	25.27990913	5.038478374	8.221561432	1.0
[LeftFoot]
6	0	-444.2789917	-29.8219986	-5.245335102	13.26412487	-4.844666481	1.0
7	0	-444.2789917	-29.8219986	-5.932336807	16.25425911	-5.184548855	1.0
8	0	-444.2789917	-29.8219986	-6.618336678	19.09968948	-5.627706051	1.0
[LeftToeBase]
6	0	-87.28699493	107.1060028	-4.928524017	-7.634344911e-06	5.880384037e-07	1.0
7	0	-87.28699493	107.1060028	-4.928522587	-4.545199772e-06	-2.544639166e-08	1.0
8	0	-87.28699493	107.1060028	-4.928521156	-6.637215506e-07	-7.682104979e-07	1.0
[RightUpLeg]
6	-82.07800293	-67.51699829	-15.99599934	-9.073852539	-9.1923666	-4.616137981	1.0
7	-82.07800293	-67.51699829	-15.99599934	-8.4685812	-12.16518879	-4.50741291	1.0
8	-82.07800293	-67.51699829	-15.99599934	-7.892882824	-14.61475849	-4.377115726	1.0
[RightLeg]
6	0	-443.7049866	2.861999989	25.27146721	-10.05988216	5.965112686	1.0
7	0	-443.7049866	2.861999989	26.93881416	-11.06392002	5.703001499	1.0
8	0	-443.7049866	2.861999989	28.76894569	-12.52332878	4.515737534	1.0
[RightFoot]
6	0	-444.2770081	-29.83799934	-4.705526352	-27.51816559	0.07232923061	1.0
7	0	-444.2770081	-29.83799934	-6.893303394	-28.56138229	3.501896143	1.0
8	0	-444.2770081	-29.83799934	-9.238285065	-28.5787735	7.867842197	1.0
[RightToeBase]
6	0	-87.28699493	107.1060028	-9.353133202	-1.52477196e-05	3.592485882e-06	1.0
7	0	-87.28699493	107.1060028	-10.72726345	-2.040008985e-05	5.705579497e-06	1.0
8	0	-87.28699493	107.1060028	-12.03755856	-2.081226921e-05	6.748818123e-06	1.0
[EndOfFile]
